<?xml version="1.0" encoding="utf-8"?>
<!-- Generator: Adobe Illustrator 22.1.0, SVG Export Plug-In . SVG Version: 6.00 Build 0)  -->
<svg version="1.1" id="Capa_1" xmlns="http://www.w3.org/2000/svg" xmlns:xlink="http://www.w3.org/1999/xlink" x="0px" y="0px"
	 viewBox="0 0 512 512" style="enable-background:new 0 0 512 512;" xml:space="preserve">
<style type="text/css">
	.st0{fill:#CAC2BC;}
	.st1{fill:#465E84;}
</style>
<g>
	<path class="st0" d="M401,300.5c2,2,4.5,2.9,7.1,2.9s5.1-1,7.1-2.9l22.9-22.9c3.9-3.9,3.9-10.2,0-14.1l-22.9-22.9
		c-3.9-3.9-10.2-3.9-14.1,0c-3.9,3.9-3.9,10.2,0,14.1l15.8,15.8L401,286.4C397.1,290.3,397.1,296.6,401,300.5L401,300.5z"/>
	<path class="st0" d="M111,240.6c-3.9-3.9-10.2-3.9-14.1,0L74,263.5c-3.9,3.9-3.9,10.2,0,14.1l22.9,22.9c2,2,4.5,2.9,7.1,2.9
		s5.1-1,7.1-2.9c3.9-3.9,3.9-10.2,0-14.1l-15.8-15.8l15.8-15.8C114.9,250.9,114.9,244.5,111,240.6L111,240.6z"/>
	<path class="st0" d="M502,374h-9.4V85.6c0-22.5-18.3-40.7-40.7-40.7H60.1c-22.5,0-40.7,18.3-40.7,40.7V374H10c-5.5,0-10,4.5-10,10
		v37.4c0,25.2,20.5,45.8,45.8,45.8h420.5c25.2,0,45.8-20.5,45.8-45.8V384C512,378.4,507.5,374,502,374z M60.1,64.9h391.7
		c11.4,0,20.7,9.3,20.7,20.7v27.8H39.4V85.6C39.4,74.2,48.7,64.9,60.1,64.9z M39.4,133.5h433.2V374H328.4c-5.5,0-10,4.5-10,10
		c0,6.4-5.2,11.6-11.6,11.6H205.2c-6.4,0-11.6-5.2-11.6-11.6c0-5.5-4.5-10-10-10H39.4L39.4,133.5z M492,421.4
		c0,14.2-11.6,25.8-25.8,25.8H45.8c-14.2,0-25.8-11.6-25.8-25.8V394h155.2c4.2,12.5,16,21.6,30,21.6h101.6c13.9,0,25.8-9.1,30-21.6
		H492V421.4z"/>
	<path class="st0" d="M250.4,98h11.2c5.5,0,10-4.5,10-10s-4.5-10-10-10h-11.2c-5.5,0-10,4.5-10,10S244.9,98,250.4,98L250.4,98z"/>
</g>
<g>
	<path class="st1" d="M319.4,168.6h-34.1c0,11.5-9.3,20.9-20.9,20.9h-16.8c-11.5,0-20.9-9.3-20.9-20.9h-34.1c-13.1,0-39,12.4-39,39
		v58.5h40.5v77.3h123.6v-77.3h40.5v-58.5C358.4,179.6,332.5,168.6,319.4,168.6z"/>
</g>
</svg>
