<?xml version="1.0" encoding="utf-8"?>
<!-- Generator: Adobe Illustrator 22.1.0, SVG Export Plug-In . SVG Version: 6.00 Build 0)  -->
<svg version="1.1" id="Capa_1" xmlns="http://www.w3.org/2000/svg" xmlns:xlink="http://www.w3.org/1999/xlink" x="0px" y="0px"
	 viewBox="0 0 512 512" style="enable-background:new 0 0 512 512;" xml:space="preserve">
<style type="text/css">
	.st0{fill:#CAC2BC;}
	.st1{fill:#465E84;}
</style>
<g>
	<path class="st0" d="M262,87h-11.9c-5.5,0-10,4.5-10,10s4.5,10,10,10H262c5.5,0,10-4.5,10-10S267.6,87,262,87z"/>
	<path class="st0" d="M317,87h-11.9c-5.5,0-10,4.5-10,10s4.5,10,10,10H317c5.5,0,10-4.5,10-10S322.5,87,317,87z"/>
	<path class="st0" d="M371.9,87h-11.9c-5.5,0-10,4.5-10,10s4.5,10,10,10h11.9c5.5,0,10-4.5,10-10S377.5,87,371.9,87z"/>
	<path class="st0" d="M149.9,87H64.2c-5.5,0-10,4.5-10,10s4.5,10,10,10h85.7c5.5,0,10-4.5,10-10S155.4,87,149.9,87z"/>
	<path class="st0" d="M143.8,194.1c-23,0-41.8,18.8-41.8,41.9v3.1H75.4c-5.5,0-10,4.5-10,10v113.6c0,18.8,15.3,34.1,34.1,34.1h89
		c18.8,0,34.1-15.3,34.1-34.1V249.2c0-5.5-4.5-10-10-10h-26.9V236C185.6,212.9,166.9,194.1,143.8,194.1z M122,236
		c0-12.1,9.8-21.9,21.8-21.9s21.8,9.8,21.8,21.9v3.1H122L122,236z M202.5,259.2v103.6c0,7.8-6.3,14.1-14.1,14.1h-89
		c-7.8,0-14.1-6.3-14.1-14.1V259.2H102v21.1c0,5.5,4.5,10,10,10s10-4.5,10-10v-21.1h43.6v21.1c0,5.5,4.5,10,10,10s10-4.5,10-10
		v-21.1H202.5z"/>
	<path class="st0" d="M373.9,440.3H33.6c-7.5,0-13.6-6.1-13.6-13.5V153.7h385v95.2h20V73.8c0-18.5-15.1-33.5-33.6-33.5H33.6
		C15.1,40.3,0,55.3,0,73.8v353c0,18.5,15.1,33.5,33.6,33.5h372.1C395.7,455.5,384.4,448.9,373.9,440.3L373.9,440.3z M20,73.8
		c0-7.5,6.1-13.5,13.6-13.5h357.8c7.5,0,13.6,6.1,13.6,13.5v59.8H20V73.8z"/>
</g>
<g>
	<path class="st1" d="M486,274.4c-24.9,0-46.4-14.5-56.3-35.5h-29.3c-10,21-31.5,35.5-56.3,35.5c-9.3,0-18.1-2-26-5.6v102.5
		c0,74.9,97,100.5,97,100.5s97-25.6,97-100.5V268.7C504.1,272.3,495.3,274.4,486,274.4z"/>
</g>
<g>
	<path class="st0" d="M412.1,384.7c-2.6,0-5.2-1-7-2.9l-16.8-16.6c-3.9-3.9-3.9-10.2,0-14.1c3.9-3.9,10.2-3.9,14.1,0l9.1,9
		l26.5-31.4c3.6-4.2,9.9-4.8,14.1-1.2c4.2,3.6,4.8,9.9,1.2,14.1l-33.5,39.7c-1.8,2.1-4.4,3.4-7.2,3.5
		C412.4,384.7,412.2,384.7,412.1,384.7L412.1,384.7z"/>
</g>
</svg>
