<?xml version="1.0" encoding="utf-8"?>
<!-- Generator: Adobe Illustrator 22.1.0, SVG Export Plug-In . SVG Version: 6.00 Build 0)  -->
<svg version="1.1" id="Capa_1" xmlns="http://www.w3.org/2000/svg" xmlns:xlink="http://www.w3.org/1999/xlink" x="0px" y="0px"
	 viewBox="0 0 512 512" style="enable-background:new 0 0 512 512;" xml:space="preserve">
<style type="text/css">
	.st0{fill:#CAC2BC;}
	.st1{fill:#465E84;}
</style>
<g>
	<path class="st0" d="M72,331.1c-5.5,0-10,4.5-10,10v85.3c0,5.5,4.5,10,10,10h112.8c5.5,0,10-4.5,10-10v-85.3c0-5.5-4.5-10-10-10H72
		z M174.9,416.4H82v-65.3h92.8V416.4z"/>
	<g>
		<path class="st0" d="M512,171.3c0-25-20.2-45.3-45.1-45.3H359.2l-8.2,6.3c0,1.8,8.2,12,8,13.7h107.8c13.9,0,25.1,11.3,25.1,25.3
			v30.1H332.8c-8,8-16.9,14.6-25.7,20H492v39.1H20v-39.1h197.7c-8.8-5.4-17.8-12-25.7-20H20v-30.1c0-13.9,11.3-25.3,25.1-25.3h120.7
			c-0.1-1.7,11.1-9.2,11.1-11l-11.2-9H45.1C20.2,126,0,146.3,0,171.3v287c0,25,20.2,45.3,45.1,45.3h421.7
			c24.9,0,45.1-20.3,45.1-45.3v-88.7c0-0.2,0-0.4,0-0.6c0-0.2,0-0.4,0-0.6L512,171.3L512,171.3z M492,369.5v88.7
			c0,13.9-11.3,25.3-25.1,25.3H45.1c-13.9,0-25.1-11.3-25.1-25.3V280.4h472v87.8c0,0.2,0,0.4,0,0.6C492,369.1,492,369.3,492,369.5z"
			/>
		<path class="st0" d="M393.4,327c-31.2,0-56.6,25.5-56.6,56.8s25.4,56.8,56.6,56.8S450,415,450,383.7S424.6,327,393.4,327z
			 M393.4,420.5c-20.2,0-36.6-16.5-36.6-36.8c0-20.3,16.4-36.8,36.6-36.8c20.2,0,36.6,16.5,36.6,36.8
			C430,404,413.5,420.5,393.4,420.5z"/>
	</g>
</g>
<g>
	<path class="st1" d="M333.3,43.9c-24.9,0-46.3-14.5-56.3-35.4h-29.2c-10,20.9-31.4,35.4-56.3,35.4c-9.3,0-18-2-25.9-5.6v102.4
		c0,74.9,96.8,100.4,96.8,100.4s96.8-25.6,96.8-100.4V38.3C351.3,41.9,342.5,43.9,333.3,43.9L333.3,43.9z"/>
</g>
<path class="st0" d="M259.2,155.5c-2.6,0-5.2-1-7.1-2.9l-17.9-17.8c-3.9-3.9-3.9-10.2,0-14.1c3.9-3.9,10.2-3.9,14.1,0l10.2,10.1
	l28.7-34.1c3.6-4.2,9.9-4.8,14.1-1.2s4.8,9.9,1.2,14.1L266.9,152c-1.8,2.1-4.4,3.4-7.2,3.5C259.5,155.5,259.4,155.5,259.2,155.5
	L259.2,155.5z"/>
</svg>
