<svg width="0" height="0" class="hidden">
  <symbol xmlns="http://www.w3.org/2000/svg" viewBox="0 0 266 63" id="iokassa">
    <path d="M138.76 17.337h-8.59l-6.079 10.683h-3.129l-.1-23.12h-8.132v41.756h8.132l.1-11.46h3.109l8.072 11.46h9.009l-10.524-15.188 8.132-14.131zm61.547 13.753a21.591 21.591 0 00-5.322-2.492l-1.794-.678-.478-.179c-1.116-.418-2.292-.857-2.332-1.993a1.991 1.991 0 01.877-1.714 3.867 3.867 0 011.993-.678 6.458 6.458 0 014.345 1.296l.219.14 4.345-5.003-.219-.18a10.924 10.924 0 00-1.754-1.275 11.702 11.702 0 00-3.607-1.336 13.314 13.314 0 00-5.541 0c-1.766.234-3.441.92-4.863 1.993a8.788 8.788 0 00-3.309 5.86 8.431 8.431 0 001.475 5.86 11.956 11.956 0 005.979 3.587l.359.12.817.279c2.95.996 3.787 1.395 4.265 1.993.223.3.348.663.359 1.037 0 1.415-1.734 1.993-2.91 2.351a6.116 6.116 0 01-4.743-1.076 9.848 9.848 0 01-2.751-2.77c-.458.478-4.963 4.923-4.883 5.002l.14.2a15.124 15.124 0 008.61 5.341c.776.15 1.562.25 2.352.3h.817a12.377 12.377 0 007.494-2.333 9.112 9.112 0 003.249-4.185 8.19 8.19 0 00-.718-6.897 8.396 8.396 0 00-2.471-2.57zm26.269 0a21.443 21.443 0 00-5.301-2.492l-1.814-.678-.458-.18c-1.136-.418-2.292-.856-2.352-1.992a2.144 2.144 0 01.897-1.714 3.867 3.867 0 011.993-.678 6.497 6.497 0 014.345 1.296l.199.14 4.345-5.004-.199-.179a10.312 10.312 0 00-1.774-1.276 11.618 11.618 0 00-3.588-1.335 13.387 13.387 0 00-5.56 0c-1.764.24-3.438.927-4.864 1.993a8.778 8.778 0 00-3.348 5.84 8.308 8.308 0 001.475 5.86 11.957 11.957 0 005.979 3.587l.339.12.817.279c2.97.996 3.807 1.395 4.285 1.993.23.296.35.662.339 1.036 0 1.415-1.714 1.993-2.89 2.352a6.162 6.162 0 01-4.763-1.076 10.392 10.392 0 01-2.751-2.77c-.438.478-4.943 4.922-4.883 5.002l.159.2a15.13 15.13 0 008.611 5.341 17.91 17.91 0 002.352.299h.817a12.377 12.377 0 007.494-2.332 9.112 9.112 0 003.249-4.185 8.205 8.205 0 00-.718-6.896 8.446 8.446 0 00-2.432-2.552zm-61.109-13.753v2.87h-.358a11.96 11.96 0 00-8.391-3.508 13.75 13.75 0 00-10.325 4.365 15.705 15.705 0 00-3.986 10.843 16.203 16.203 0 003.986 11.061 13.316 13.316 0 0010.185 4.345 13.47 13.47 0 008.57-3.288h.319v2.57h8.451V17.338h-8.451zm.419 14.729a9.583 9.583 0 01-2.213 6.478 7.408 7.408 0 01-5.779 2.471 7 7 0 01-5.521-2.551 9.767 9.767 0 01-2.153-6.557 9.405 9.405 0 012.192-6.319 7.142 7.142 0 015.541-2.51 7.294 7.294 0 015.72 2.49 9.643 9.643 0 012.213 6.498zm91.503-14.729v2.87h-.359a11.958 11.958 0 00-8.371-3.508 13.835 13.835 0 00-10.344 4.365 15.705 15.705 0 00-3.986 10.843 16.204 16.204 0 003.986 11.061 13.321 13.321 0 0010.185 4.345 13.472 13.472 0 008.57-3.288h.319v2.57h8.451V17.338h-8.451zm.419 14.73a9.488 9.488 0 01-2.213 6.477 7.408 7.408 0 01-5.78 2.471 6.995 6.995 0 01-5.521-2.551 9.766 9.766 0 01-2.152-6.557 9.406 9.406 0 012.192-6.319 7.142 7.142 0 015.541-2.51 7.293 7.293 0 015.72 2.49 9.547 9.547 0 012.213 6.498zM57.22 0c-17.545 0-31.5 14.155-31.5 31.5 0 17.544 14.154 31.5 31.5 31.5 17.344 0 31.5-14.155 31.5-31.5S74.563 0 57.22 0zm0 43.063c-6.38 0-11.763-5.383-11.763-11.762 0-6.38 5.383-11.763 11.762-11.763 6.38 0 11.763 5.383 11.763 11.763-.2 6.579-5.383 11.762-11.763 11.762zM25.519 8.972v45.854H14.354L0 8.972h25.519z"></path>
  </symbol>
  <symbol xmlns="http://www.w3.org/2000/svg" viewBox="0 0 301 63" id="iomoney">
    <path d="M291.674 17.345l-6.977 17.145c-.2.2-.2.599-.2.798l-.199.399-.2-.399c0-.2-.199-.598-.199-.797l-6.978-17.146h-8.971l11.762 29.307-4.984 11.164h8.972l16.547-40.471h-8.573zm-66.19 1.595c-1.595-1.196-3.589-1.994-5.981-2.193-3.988-.399-7.776.997-10.368 3.589v-3.19h-8.174v29.307h8.174V31.1c0-3.389.599-4.386 1.197-5.183.997-1.595 2.791-2.392 4.984-2.392s4.187.996 5.183 2.591c.599 1.196.798 2.791.798 3.589v16.747h8.174V28.709c0-4.585-1.196-7.775-3.987-9.769zm-39.873-1.396c-3.988-1.395-8.374-1.196-12.361.598-2.592 1.197-4.984 3.19-6.38 5.782-1.395 2.193-1.994 4.984-1.994 7.975 0 2.99.599 5.782 1.994 7.974 1.396 2.194 3.19 4.187 5.582 5.383 2.393 1.197 5.184 1.994 7.776 1.994a15.2 15.2 0 004.186-.598c1.197-.399 2.393-.797 3.589-1.396 2.392-1.395 4.386-3.19 5.582-5.383 1.396-2.192 1.994-4.984 1.994-7.974 0-6.58-3.788-12.162-9.968-14.355zm2.193 14.753c-.2 2.592-.997 4.785-2.592 6.18-1.196.998-2.991 1.596-5.184 1.795-2.193 0-3.788-.598-5.183-1.794-1.595-1.396-2.393-3.589-2.592-6.18-.199-2.991.997-5.383 3.19-6.978 1.196-.798 2.791-1.396 4.386-1.396 1.794 0 3.19.598 4.585 1.396 2.393 1.395 3.589 3.987 3.39 6.977zM155.307 18.94c-1.595-1.196-3.589-1.994-5.981-2.193h-1.396c-3.19 0-5.981 1.395-8.373 4.186l-.399.599h-.798c-.598-.997-1.395-1.795-2.193-2.393-1.595-1.196-3.588-1.993-5.981-2.193-3.788-.399-6.778.798-9.37 3.589v-2.99h-8.174V46.85h8.174V31.1c0-3.19.399-3.987.997-4.984.997-1.595 2.791-2.592 4.785-2.392 1.993 0 3.788.996 4.785 2.591.797 1.197.797 2.592.797 3.988v16.348h8.174v-15.75c0-2.99.399-3.988.997-4.984.997-1.595 2.791-2.393 4.785-2.393 1.993 0 3.588.997 4.585 2.592.598.997.798 2.193.798 2.99v17.346h8.174V28.509c0-1.595-.2-3.19-.598-4.585-.798-1.994-1.994-3.788-3.788-4.984zm104.866 18.74c-1.196 1.197-3.987 3.39-7.775 3.589-3.19.2-5.582-.797-7.377-2.592-.797-.797-1.395-1.993-1.794-3.19h22.529v-.199c.199-1.196.398-2.193.398-3.39 0-.996-.199-2.392-.598-4.186-.997-3.39-2.99-5.981-5.582-7.975-2.991-2.193-5.782-2.79-6.579-2.79-5.782-.998-12.361 1.594-15.75 6.977-2.393 3.788-2.193 7.576-2.193 8.772 0 1.396.199 5.782 3.788 9.77 4.187 4.585 9.968 4.784 11.762 4.983 7.975.2 13.358-4.785 14.554-5.781l-5.383-3.988zm-13.955-12.36c1.196-.798 2.591-1.396 4.386-1.396 1.794 0 3.19.598 4.585 1.396 1.196.996 2.193 2.193 2.791 3.588h-14.354c.399-1.395 1.196-2.79 2.592-3.588zM57.22 0c-17.545 0-31.5 14.155-31.5 31.5 0 17.544 14.154 31.5 31.5 31.5 17.344 0 31.5-14.155 31.5-31.5S74.563 0 57.22 0zm0 43.063c-6.38 0-11.763-5.383-11.763-11.762 0-6.38 5.383-11.763 11.762-11.763 6.38 0 11.763 5.383 11.763 11.763-.2 6.579-5.383 11.762-11.763 11.762zM25.519 8.972v45.854H14.354L0 8.972h25.519z" ></path>
  </symbol>
  <symbol xmlns="http://www.w3.org/2000/svg" viewBox="0 0 50 50" id="mastercard">
    <path d="M15 10C6.73 10 0 16.73 0 25s6.73 15 15 15a14.92 14.92 0 0010-3.844C27.656 38.536 31.16 40 35 40c8.27 0 15-6.73 15-15s-6.73-15-15-15c-3.84 0-7.344 1.465-10 3.844A14.92 14.92 0 0015 10zm20 2c7.168 0 13 5.832 13 13s-5.832 13-13 13a12.926 12.926 0 01-8.75-3.406A24.56 24.56 0 0127.5 33h-2.719a12.952 12.952 0 01-.718-1h4.03c.4-.602.7-1.3 1-2H23a12.235 12.235 0 01-.375-1h6.688c.199-.602.273-1.3.375-2h-7.532c-.05-.328-.066-.664-.093-1h7.843v-2h-7.843c.027-.336.042-.672.093-1h7.75c-.101-.7-.207-1.398-.406-2h-6.875c.11-.344.238-.672.375-1h6c-.3-.7-.602-1.398-1-2h-3.938c.223-.348.465-.676.72-1h2.624a11.741 11.741 0 00-1.218-1.5C28.508 13.344 31.59 12 35 12z"></path>
  </symbol>
  <symbol xmlns="http://www.w3.org/2000/svg" viewBox="0 0 57 16" id="mir">
    <path d="M15.4 0s-2.2 0-2.8 2.1C12 4 10.5 9.4 10.4 9.5H10S8.4 4.1 7.9 2.1C7.3 0 5.1 0 5.1 0H0v16h5.1V6.5h.4l3 9.5H12l3-9.5h.4V16h5.1V0h-5.1zm18.5 0s-1.5.1-2.2 1.7l-3.6 7.8h-.4V0h-5.1v16h4.8s1.6-.1 2.3-1.7l3.5-7.8h.4V16h5.1V0h-4.8zm7 7.3V16H46v-5.1h5.5c2.4 0 4.4-1.5 5.2-3.6H40.9zM51.5 0H40.2c.6 3 2.9 5.5 5.8 6.3.7.2 1.4.3 2.1.3h8.7c.2-.4.2-.8.2-1.2 0-3-2.5-5.4-5.5-5.4z"></path>
  </symbol>
  <symbol xmlns="http://www.w3.org/2000/svg" viewBox="0 0 50 50" id="qiwi">
    <path d="M23.5 0C11.093 0 1 10.093 1 22.5S11.093 45 23.5 45c2.595 0 4.436-.296 6.059-.557C30.977 44.215 32.315 44 34 44c8.165 0 13.199 5.603 13.248 5.66a1.002 1.002 0 001.291.18 1 1 0 00.373-1.248c-.11-.248-2.827-6.108-13.719-8.63l-.297-.081c-2.692-.666-4.866-1.75-6.459-3.225-2.058-1.902-2.45-3.822-2.453-3.834a1.01 1.01 0 00-1.074-.818A1 1 0 0024 33c0 .102.007 2.09.354 3.969-.298.02-.581.031-.854.031C15.505 37 9 30.495 9 22.5S15.505 8 23.5 8 38 14.505 38 22.5c0 .596-.037 1.199-.113 1.799A27.622 27.622 0 0034 24c-.582 0-1 .5-1 1.02.012.543.455.979.998.98.02 0 2.1.02 3.963 1.217 3.087 1.984 3.826 4.98 3.832 5.006.093.412.435.72.855.77.417.042.826-.17 1.014-.55A22.244 22.244 0 0046 22.5C46 10.093 35.907 0 23.5 0zm15.135 32.002a.555.555 0 00-.541.275c-.212.371-.054 1.106.373 1.746.433.648.8.977 1.092.977.268 0 .536-.335.41-1.146-.075-.484-.358-1.536-1.073-1.795a.937.937 0 00-.261-.057zM35.367 35c-.449 0-.823.117-1.053.342-.59.578-.324 1.593.579 2.22.395.274.962.438 1.52.438.566 0 1.04-.17 1.333-.477.525-.56.224-1.352-.77-2.02A2.927 2.927 0 0035.368 35z"></path>
  </symbol>
  <symbol xmlns="http://www.w3.org/2000/svg" viewBox="0 0 50 50" id="sber">
    <path d="M33.54 2.65L16 12.68 8.26 8.25c-.48.49-.92 1.01-1.33 1.54l9.07 5.2L35.76 3.68c-.72-.39-1.46-.73-2.22-1.03zm5.29 2.97L16 18.68 5.12 12.45c-.34.57-.65 1.16-.93 1.76L16 20.99l24.47-14c-.52-.48-1.07-.93-1.64-1.37zm3.92 3.76L16 24.68 3.02 17.24c-.21.65-.38 1.32-.52 2L16 26.99l27.96-16c-.38-.55-.78-1.09-1.21-1.61zM45.717 14L16 31 2.047 23c-.016.333-.047.663-.047 1 0 12.703 10.297 23 23 23s23-10.297 23-23c0-3.584-.82-6.976-2.283-10z"></path>
  </symbol>
  <symbol xmlns="http://www.w3.org/2000/svg" viewBox="0 0 30 30" id="visa">
    <path d="M4 5a2 2 0 00-2 2v4.049h3.021c.825 0 1.141.773 1.141.773l.701 3.563c-.83-2.674-4.029-3.97-4.863-4.268V23a2 2 0 002 2h22a2 2 0 002-2V7a2 2 0 00-2-2H4zm14.37 5.871c.965 0 1.952.387 1.952.387l-.338 1.734s-.77-.506-1.445-.506c-1.036 0-1.398.338-1.398.793 0 .891 2.892 1.036 2.892 3.034 0 1.66-2.074 2.816-3.566 2.816-1.494 0-2.266-.455-2.266-.455l.361-1.664s.796.457 2.002.457c1.204 0 1.372-.506 1.372-.723 0-1.275-2.89-.935-2.89-3.416 0-1.372 1.132-2.457 3.323-2.457zm-9.349.158h2.231L8.08 18.883H5.783l-1.672-6.36s1.762.893 2.848 3.327c.047.296.156.771.156.771l1.906-5.592zm3.053 0h2.11l-1.26 7.854H10.84l1.234-7.854zm11.324 0h2.192l1.613 7.854h-1.896l-.225-1.12h-2.607l-.428 1.12h-2.07l3.421-7.854zm.788 2.266l-1.133 2.967h1.726l-.593-2.967z"></path>
  </symbol>
  <symbol xmlns="http://www.w3.org/2000/svg" viewBox="0 0 512 512" id="wallet-one">
    <path d="M492.2 158.1v196.8c-4.3 10.1-9.1 19.9-14.6 29.4-5.9 4.4-13.3 7-21.3 7-19.8 0-35.9-16.1-35.9-35.9V243.8L281.2 381c-6.8 6.8-15.9 10.3-25.2 10.3-4.7 0-9.4-.9-13.8-2.8-13.3-5.6-22-18.6-22-33.1V243.8L80.9 381C70.6 391.1 63 396.3 45 395c-2.7-1.1-14.7-1.3-20.7-10.7-5.9-9.2-4-16.7-4.5-29.4V156.6c0-11.9 5.8-22.4 14.6-28.9 5.9-4.4 13.3-7 21.2-7 19.8 0 35.9 16.1 35.9 35.9v113.1s137.7-137.1 138.6-138c6.5-6.8 15.7-11 25.8-11 19.8 0 35.9 16.1 35.9 35.9v113.1l139.3-137.2c10.3-10.1 25.7-13.1 39-7.5 3.3 1.4 6.3 3.2 8.9 5.4 7.9 6.5 12.8 16.1 13.1 26.7.1.3.1.6.1 1z"></path>
    <path d="M492.2 158.1v196.8c.1 14.1-1.8 21.4-12.5 30.7-5.9 4.4-15.4 5.6-23.3 5.6-19.8 0-35.9-16.1-35.9-35.9V243.8l-9 8.9c-14.1 13.9-36.8 13.7-50.7-.4-13.9-14.1-13.7-36.8.4-50.7l70-69c10.3-10.1 25.7-13.1 39-7.5 3.3 1.4 6.3 3.2 8.9 5.4 7.9 6.5 12.8 16.1 13.1 26.7v.9z"  stroke-miterlimit="10"></path>
  </symbol>
  <symbol xmlns="http://www.w3.org/2000/svg" viewBox="0 0 50 50" id="webmoney">
    <path d="M24.389 2.033c-6.452.142-13.18 2.976-17.854 9.256C-1.03 21.461.965 35.528 11.08 43.311a22.576 22.576 0 0013.856 4.722c5.103 0 9.91-1.712 13.36-4.492l.048.055 1.502-1.32-5.09-5.796-2.121 1.944a162.644 162.644 0 00-3.254 3.021c-1.702-1.943-3.428-3.867-5.152-5.79-.831-.928-1.662-1.856-2.49-2.786a3.64 3.64 0 01-.14-.164l2.43-2.271-6.256-7.065 2.45-2.295-6.358-7.078 8.655-7.818 3.195 3.457 5.295-4.701.133.043 3.029 3.318 2.832-2.592s-.75-.695-1.488-1.101a.625.625 0 00-.319-.079c-3.167-1.69-6.938-2.575-10.808-2.49zm14.279 5.215l-2.53 2.314 2.282 2.532 2.539-2.283-2.291-2.563zm-7.697.684l-3.912 3.554 3.52 3.91 3.905-3.527-3.513-3.937zm-8.7 1.44l-5.275 4.778 4.76 5.295 5.287-4.773-4.772-5.3zm19.885 6.064l-2.521 2.296 2.299 2.543 2.54-2.304-2.318-2.535zm-7.402.802l-3.906 3.541 3.517 3.926 3.916-3.54-3.527-3.927zm-8.557 2.524l-5.277 4.79 4.77 5.296 5.261-4.785-4.754-5.301zm19.475 4.855l-2.535 2.281 2.3 2.543 2.542-2.287-2.307-2.537zm-7.402 1.35l-3.907 3.531 3.522 3.932 3.91-3.55-3.525-3.913zm-8.174 3.312l-5.276 4.772 4.748 5.308 5.295-4.779-4.767-5.3zm11.773 5.026l-3.89 3.547 3.525 3.902 3.918-3.531-3.553-3.918z"></path>
  </symbol>
  <symbol xmlns="http://www.w3.org/2000/svg" viewBox="0 0 24 24" id="send">
    <path d="M9.417 15.181l-.397 5.584c.568 0 .814-.244 1.109-.537l2.663-2.545 5.518 4.041c1.012.564 1.725.267 1.998-.931L23.93 3.821l.001-.001c.321-1.496-.541-2.081-1.527-1.714l-21.29 8.151c-1.453.564-1.431 1.374-.247 1.741l5.443 1.693L18.953 5.78c.595-.394 1.136-.176.691.218z"></path>
  </symbol>  
  <symbol xmlns="http://www.w3.org/2000/svg" viewBox="0 0 24 24" id="home">
    <path d="M5 12H2l10-9 10 9h-3v8h-6v-6h-2v6H5v-8zm10 6h2v-7.8l-5-4.5-5 4.5V18h2v-6h6v6z" fill="#cec5bf"></path>
    <path d="M7 10.2V18h2v-6h6v6h2v-7.8l-5-4.5-5 4.5z" opacity=".3" fill="#cec5bf"></path>
  </symbol>
  <symbol xmlns="http://www.w3.org/2000/svg" viewBox="0 0 24 24" id="search-catalog">
    <path d="M9.5 11c.3.7.8 1.4 1.3 2H2v-2h7.5zm0-5c-.3.6-.4 1.3-.5 2H2V6h7.5zM18 18H2v-2h16v2zM15.5 4C18 4 20 6 20 8.5c0 .9-.3 1.7-.7 2.4l3.1 3.1-1.4 1.4-3.1-3.1c-.7.4-1.5.7-2.4.7C13 13 11 11 11 8.5S13 4 15.5 4zM13 8.5c0 1.4 1.1 2.5 2.5 2.5S18 9.9 18 8.5 16.9 6 15.5 6 13 7.1 13 8.5z"></path>
    <path d="M15.5 4C18 4 20 6 20 8.5c0 .9-.3 1.7-.7 2.4l3.1 3.1-1.4 1.4-3.1-3.1c-.7.4-1.5.7-2.4.7C13 13 11 11 11 8.5S13 4 15.5 4zM13 8.5c0 1.4 1.1 2.5 2.5 2.5S18 9.9 18 8.5 16.9 6 15.5 6 13 7.1 13 8.5z"></path>
    <path d="M15.5 4C18 4 20 6 20 8.5c0 .9-.3 1.7-.7 2.4l3.1 3.1-1.4 1.4-3.1-3.1c-.7.4-1.5.7-2.4.7C13 13 11 11 11 8.5S13 4 15.5 4zM13 8.5c0 1.4 1.1 2.5 2.5 2.5S18 9.9 18 8.5 16.9 6 15.5 6 13 7.1 13 8.5zM9.5 11c.3.7.8 1.4 1.3 2H2v-2h7.5zm0-5c-.3.6-.4 1.3-.5 2H2V6h7.5zM18 18H2v-2h16v2z"></path>
    <path d="M9.5 11c.3.7.8 1.4 1.3 2H2v-2h7.5zm0-5c-.3.6-.4 1.3-.5 2H2V6h7.5zM18 18H2v-2h16v2z"></path>
  </symbol>  
</svg>